<?xml version="1.0" encoding="UTF-8" standalone="no"?>
<!DOCTYPE svg PUBLIC "-//W3C//DTD SVG 1.1//EN" "http://www.w3.org/Graphics/SVG/1.1/DTD/svg11.dtd">
<svg width="100%" height="100%" viewBox="0 0 500 500" version="1.1" xmlns="http://www.w3.org/2000/svg" xmlns:xlink="http://www.w3.org/1999/xlink" xml:space="preserve" xmlns:serif="http://www.serif.com/" style="fill-rule:evenodd;clip-rule:evenodd;stroke-linejoin:round;stroke-miterlimit:2;">
    <g transform="matrix(4.56141,0,0,4.54481,-890.353,-886.202)">
        <g transform="matrix(1,0,0,1,124.038,66.7066)">
            <path d="M129.6,227.4C126.1,222.15 124.5,216.8 124.5,210.25C124.55,202.5 126.65,196.6 131.2,191.65C134.8,187.7 135.15,187.6 136.9,190.1C139.25,193.55 141.05,198.75 141.6,203.7C142.3,209.45 141.4,214.45 138.6,220.25C136.45,224.65 132.9,229.5 131.75,229.5C131.35,229.5 130.4,228.55 129.6,227.4Z" style="fill:rgb(132,204,22);fill-rule:nonzero;"/>
        </g>
        <g transform="matrix(1,0,0,1,124.038,66.7066)">
            <path d="M91.25,208.15C88.35,207.8 85.25,206.9 82.45,205.65C78.85,204.1 78.95,203.55 83.7,198.75C91.65,190.75 103.6,187.7 113.65,191.05C117.2,192.25 120,194 120,195C120,196.05 115.35,200.9 112.35,202.95C106.5,206.95 98.15,209 91.25,208.15Z" style="fill:rgb(132,204,22);fill-rule:nonzero;"/>
        </g>
        <g transform="matrix(1,0,0,1,124.038,66.7066)">
            <path d="M153.75,189.75C147.7,188.25 141.45,184.6 138.05,180.65C135.4,177.5 133.2,173.05 133.85,172.05C134.7,170.7 139.3,169.95 145.25,170.2C149.9,170.35 151.3,170.6 154.35,171.9C159.15,173.9 162.3,175.75 165.05,178.35C167.3,180.45 172,186.9 172,187.9C172,188.5 170.05,189.3 167,190C163.95,190.65 156.8,190.55 153.75,189.75Z" style="fill:rgb(71,85,105);fill-rule:nonzero;"/>
        </g>
        <g transform="matrix(1,0,0,1,124.038,66.7066)">
            <path d="M105.85,181.45C95.1,177.1 87.5,165.8 87.3,153.85C87.25,147.95 87.65,146.35 89.15,146.75C91.85,147.5 97.5,150.65 100.1,152.85C106.75,158.5 110.35,165.4 110.8,173.5C111.1,178.15 110.25,182.15 109,182.35C108.6,182.4 107.15,182 105.85,181.45Z" style="fill:rgb(132,204,22);fill-rule:nonzero;"/>
        </g>
        <g transform="matrix(1,0,0,1,124.038,66.7066)">
            <path d="M117.8,168.65C117.3,168.15 117.45,163.75 118.05,160.9C119.25,155.4 123.05,148.85 127.35,144.95C130.45,142.15 135.85,139.2 140.05,137.95C145.35,136.4 145.7,136.65 145.3,141.1C144.35,150.5 139.25,159.3 131.65,164.55C127.95,167.1 118.95,169.75 117.8,168.65Z" style="fill:rgb(132,204,22);fill-rule:nonzero;"/>
        </g>
    </g>
</svg>
