<?xml version="1.0" encoding="UTF-8" standalone="no"?>
<!DOCTYPE svg PUBLIC "-//W3C//DTD SVG 1.1//EN" "http://www.w3.org/Graphics/SVG/1.1/DTD/svg11.dtd">
<svg width="100%" height="100%" viewBox="0 0 2074 371" version="1.1" xmlns="http://www.w3.org/2000/svg" xmlns:xlink="http://www.w3.org/1999/xlink" xml:space="preserve" xmlns:serif="http://www.serif.com/" style="fill-rule:evenodd;clip-rule:evenodd;stroke-linejoin:round;stroke-miterlimit:2;">
    <g transform="matrix(1,0,0,1,-39.6333,-34.7533)">
        <g transform="matrix(1,0,0,1,5.1,34.7533)">
            <path d="M121.853,289.587L116.427,180.067L264.92,20.72L372.467,20.72L224.467,181.053L170.2,237.787L121.853,289.587ZM34.533,366.053L34.533,20.72L131.227,20.72L131.227,366.053L34.533,366.053ZM266.4,366.053L153.92,223.48L217.56,155.4L379.867,366.053L266.4,366.053Z" style="fill:rgb(132,204,22);fill-rule:nonzero;"/>
        </g>
        <g transform="matrix(1,0,0,1,5.1,34.7533)">
            <path d="M558.947,366.053L558.947,316.227L552.533,303.893L552.533,212.133C552.533,197.333 548.011,185.904 538.967,177.847C529.922,169.789 515.533,165.76 495.8,165.76C482.973,165.76 469.982,167.816 456.827,171.927C443.671,176.038 432.489,181.711 423.28,188.947L391.707,125.307C406.836,115.44 425.007,107.793 446.22,102.367C467.433,96.94 488.564,94.227 509.613,94.227C553.027,94.227 586.656,104.176 610.5,124.073C634.344,143.971 646.267,175.133 646.267,217.56L646.267,366.053L558.947,366.053ZM480.013,370.493C458.636,370.493 440.547,366.876 425.747,359.64C410.947,352.404 399.682,342.538 391.953,330.04C384.224,317.542 380.36,303.564 380.36,288.107C380.36,271.662 384.553,257.438 392.94,245.433C401.327,233.429 414.236,224.22 431.667,217.807C449.098,211.393 471.627,208.187 499.253,208.187L562.4,208.187L562.4,257.027L512.08,257.027C496.951,257.027 486.344,259.493 480.26,264.427C474.176,269.36 471.133,275.938 471.133,284.16C471.133,292.382 474.258,298.96 480.507,303.893C486.756,308.827 495.307,311.293 506.16,311.293C516.356,311.293 525.647,308.744 534.033,303.647C542.42,298.549 548.587,290.738 552.533,280.213L565.36,314.747C560.427,333.164 550.807,347.06 536.5,356.433C522.193,365.807 503.364,370.493 480.013,370.493Z" style="fill:rgb(132,204,22);fill-rule:nonzero;"/>
        </g>
        <g transform="matrix(1,0,0,1,5.1,34.7533)">
            <rect x="705.467" y="0" width="93.733" height="366.053" style="fill:rgb(132,204,22);fill-rule:nonzero;"/>
        </g>
        <g transform="matrix(1,0,0,1,5.1,34.7533)">
            <path d="M999.987,370.493C968.413,370.493 940.869,364.491 917.353,352.487C893.838,340.482 875.584,324.038 862.593,303.153C849.602,282.269 843.107,258.507 843.107,231.867C843.107,205.227 849.438,181.464 862.1,160.58C874.762,139.696 892.276,123.416 914.64,111.74C937.004,100.064 962.164,94.227 990.12,94.227C1016.43,94.227 1040.44,99.571 1062.15,110.26C1083.85,120.949 1101.12,136.653 1113.95,157.373C1126.77,178.093 1133.19,203.253 1133.19,232.853C1133.19,236.142 1133.02,239.924 1132.69,244.2C1132.36,248.476 1132.04,252.422 1131.71,256.04L920.067,256.04L920.067,206.707L1081.88,206.707L1046.36,220.52C1046.69,208.351 1044.47,197.827 1039.7,188.947C1034.93,180.067 1028.35,173.16 1019.97,168.227C1011.58,163.293 1001.8,160.827 990.613,160.827C979.431,160.827 969.647,163.293 961.26,168.227C952.873,173.16 946.378,180.149 941.773,189.193C937.169,198.238 934.867,208.844 934.867,221.013L934.867,235.32C934.867,248.476 937.58,259.822 943.007,269.36C948.433,278.898 956.244,286.216 966.44,291.313C976.636,296.411 988.804,298.96 1002.95,298.96C1016.1,298.96 1027.37,297.069 1036.74,293.287C1046.11,289.504 1055.4,283.667 1064.61,275.773L1113.95,327.08C1101.12,341.222 1085.33,351.993 1066.59,359.393C1047.84,366.793 1025.64,370.493 999.987,370.493Z" style="fill:rgb(132,204,22);fill-rule:nonzero;"/>
        </g>
        <g transform="matrix(1,0,0,1,5.1,34.7533)">
            <path d="M1138.12,366.053L1260.96,204.733L1258.99,258.013L1141.08,98.667L1246.65,98.667L1312.76,192.893L1273.29,194.867L1343.35,98.667L1442.51,98.667L1324.6,254.56L1324.6,203.253L1445.96,366.053L1338.91,366.053L1269.84,265.413L1309.31,270.84L1239.75,366.053L1138.12,366.053Z" style="fill:rgb(132,204,22);fill-rule:nonzero;"/>
        </g>
        <g transform="matrix(1,0,0,1,5.1,34.7533)">
            <path d="M1581.13,366.053L1733.57,20.72L1829.77,20.72L1982.71,366.053L1881.08,366.053L1761.69,68.573L1800.17,68.573L1680.79,366.053L1581.13,366.053ZM1664.51,298.96L1689.67,226.933L1858.39,226.933L1883.55,298.96L1664.51,298.96Z" style="fill:rgb(71,85,105);fill-rule:nonzero;"/>
        </g>
        <g transform="matrix(1,0,0,1,5.1,34.7533)">
            <rect x="2010.33" y="20.72" width="97.68" height="345.333" style="fill:rgb(71,85,105);fill-rule:nonzero;"/>
        </g>
    </g>
</svg>
